PathFileType	4	(X/Y/Z)	D:\TRACE\v60_Jaco2_6-2-23\BothDRS_Motion3_6-v60.trc
DataRate	CameraRate	NumFrames	NumMarkers	Units	OrigDataRate	OrigDataStartFrame	OrigNumFrames
100.00	100.00	      38	9	mm	100.00	876	      7000
Frame#	Time	front left toe			Front right toe			aft left toe			aft right toe			Arm			FL body			FR body			AL Body			AR Body			
		X1	Y1	Z1	X2	Y2	Z2	X3	Y3	Z3	X4	Y4	Z4	X5	Y5	Z5	X6	Y6	Z6	X7	Y7	Z7	X8	Y8	Z8	X9	Y9	Z9	

876	8.750	-220.06686	100.98143	-272.68277	165.69310	0.52202	-278.44760	-235.24887	29.77664	329.42819	130.66040	126.85538	354.53500	7.12948	1123.25317	-552.55933	-101.08990	497.70599	-454.14716	57.53487	497.11340	-450.28427	-118.85397	588.18811	485.49280	33.44555	578.18921	490.09738	
877	8.760	-219.15092	111.65845	-274.81766	165.92746	0.70973	-278.23587	-235.20157	29.64336	329.42136	131.06381	137.19853	352.91068	8.57521	1123.52417	-552.10754	-100.53965	497.89783	-454.09113	57.39389	497.33252	-450.01147	-118.92812	587.59528	485.64249	33.65538	577.58539	490.32874	
878	8.770	-218.68668	120.98323	-276.82809	165.90353	0.86093	-278.11224	-235.20792	29.52704	329.39624	131.45041	146.46268	351.38257	9.87911	1123.90540	-551.28699	-100.47955	498.13452	-454.44705	58.51102	497.17926	-449.95746	-119.16136	587.19507	485.76123	33.53370	577.23273	490.41071	
879	8.780	-218.77464	128.56520	-278.24734	165.94165	0.88631	-278.06335	-235.29375	29.41024	329.38068	132.13858	152.79056	350.66031	10.65221	1123.96265	-551.02557	-99.83936	498.21613	-454.16275	59.03671	497.12631	-449.77982	-119.31588	587.11951	485.81705	33.13588	576.96259	490.74368	
880	8.790	-218.64713	133.48680	-279.08417	165.87996	1.07600	-277.96103	-235.33640	29.35616	329.55341	132.59969	156.69063	349.86993	11.09700	1124.02478	-550.68646	-99.03027	497.98810	-453.74368	59.71042	497.14905	-449.43961	-119.68035	587.00958	485.86234	32.32490	576.74500	491.01370	
881	8.800	-218.42403	134.31900	-279.17355	165.79584	1.10069	-277.92047	-235.34006	29.16184	329.56287	134.42816	157.81412	350.07944	11.59424	1123.80286	-550.52527	-98.32076	498.22495	-453.65219	60.55904	497.23181	-449.03598	-120.05879	586.78741	485.96677	31.91884	576.41663	491.39731	
882	8.810	-218.19456	132.51143	-279.15869	165.98021	1.14574	-277.67709	-235.31310	29.01849	329.57227	136.51979	155.74832	350.22253	12.06037	1123.68604	-550.36365	-97.82925	498.44122	-453.62723	60.22840	497.51083	-448.57303	-120.42580	586.61218	486.14328	31.03371	576.29419	491.69357	
883	8.820	-217.26070	128.52281	-279.31381	166.15895	1.31971	-277.56708	-235.23878	28.91729	329.54245	137.72202	152.05321	350.61700	12.71049	1123.71655	-550.11627	-97.14582	498.67703	-453.38196	60.65582	497.58313	-448.29773	-120.67989	586.43280	486.28195	30.84514	576.05780	491.89716	
884	8.830	-216.36484	122.85532	-279.68179	166.29471	1.36501	-277.45737	-235.06107	28.77457	329.56549	138.48831	146.90366	350.68478	14.15983	1123.86316	-549.39191	-97.13979	498.97729	-453.81189	61.07898	497.54068	-448.06494	-120.98976	586.27728	486.38947	30.54001	575.98462	492.07233	
885	8.840	-214.57182	116.26949	-280.48541	166.34145	1.41359	-277.39551	-234.90039	28.60266	329.55402	139.01363	141.01883	350.81976	15.22451	1124.08386	-548.99127	-96.80009	499.02893	-453.66803	62.31213	497.39136	-448.08725	-121.39227	586.15387	486.50653	30.07162	575.81940	492.27512	
886	8.850	-213.46339	109.22779	-281.43390	166.35629	1.48150	-277.35483	-234.40816	28.13415	329.50861	139.21004	134.13264	350.42526	16.23937	1124.33557	-548.30157	-96.29733	498.94809	-453.40997	62.78588	497.40854	-447.89838	-121.70715	586.02332	486.62747	29.83536	575.66345	492.47330	
887	8.860	-212.17500	100.93539	-282.68976	166.37711	1.45881	-277.33148	-234.34146	28.01705	329.44193	139.80396	126.14654	349.99496	17.18278	1124.51794	-547.78571	-95.64530	498.82852	-453.26236	63.18552	497.50723	-447.75311	-121.99287	585.68164	486.59735	29.33068	575.31439	492.63004	
888	8.870	-211.10303	90.70625	-283.19159	166.40150	1.49194	-277.27283	-234.75983	28.30008	329.59134	139.97519	117.16666	348.99268	17.24947	1124.68054	-547.52203	-94.92583	498.71777	-453.16275	63.67054	497.53772	-447.63251	-122.33553	585.41711	486.66296	29.09088	575.04254	492.71863	
889	8.880	-210.55870	81.18534	-284.41965	166.44725	1.43485	-277.27362	-234.81711	28.16049	329.54410	141.78059	107.75125	348.72919	17.23125	1124.66699	-547.38531	-94.49052	498.88034	-453.29330	64.33846	497.65381	-447.35541	-122.66701	585.06940	486.68030	28.60052	574.65375	492.85709	
890	8.890	-209.75916	70.72593	-285.43600	166.70358	1.49817	-277.16718	-234.72101	28.03959	329.52075	141.97643	97.46922	348.00092	17.36499	1124.65918	-547.32281	-93.79808	499.05576	-453.32117	64.78880	497.64731	-447.21429	-123.10898	584.68860	486.61801	28.40215	574.16425	492.83215	
891	8.900	-208.60600	60.19515	-285.88876	166.89531	1.44334	-277.13940	-234.70201	27.90173	329.48651	142.50182	87.79015	347.56409	17.66107	1124.66431	-547.31616	-93.33230	499.06836	-453.41248	65.15883	497.68365	-447.18817	-123.62401	584.35620	486.51648	27.42591	573.78815	492.77805	
892	8.910	-207.55089	49.78319	-286.14688	167.15871	1.48270	-277.21225	-233.79909	27.29799	329.37305	142.02205	78.57465	346.72205	18.24498	1124.70667	-547.19489	-93.05276	499.14407	-453.58469	65.66640	497.81763	-447.35370	-123.49522	584.09998	486.51132	27.29039	573.50128	492.81476	
893	8.920	-206.99208	40.36969	-286.40775	167.44633	1.41321	-277.24500	-233.68732	27.37186	329.35687	141.70424	69.35612	346.49774	19.14203	1124.64722	-546.95172	-92.69917	499.06937	-453.66235	65.88525	497.83313	-447.55618	-123.39909	583.79541	486.31305	27.30400	573.37463	492.80133	
894	8.930	-206.94418	31.51552	-285.93280	168.01477	1.46824	-277.18811	-233.60782	27.32890	329.39301	141.47165	60.98680	346.73727	19.75145	1124.69934	-546.76172	-92.16531	498.81934	-453.70959	65.45768	497.88705	-447.46442	-123.61297	583.62250	486.00919	27.22047	573.27734	492.79294	
895	8.940	-207.34521	23.28992	-285.38742	168.53546	1.62692	-276.96640	-233.74287	27.62220	329.49585	140.93649	52.99257	347.17368	20.32796	1124.72217	-546.65112	-91.67040	498.51990	-453.76202	65.50001	497.95206	-447.55145	-123.71717	583.51996	485.80084	27.18941	573.22748	492.76273	
896	8.950	-207.90019	16.08457	-284.68985	168.72537	1.60054	-277.02963	-233.59990	27.55109	329.47144	140.98972	46.31841	347.81119	20.50885	1124.61670	-546.75696	-91.36260	498.26044	-453.96423	66.16106	497.48114	-447.66806	-124.23616	583.28241	485.52478	27.05579	573.12701	492.67871	
897	8.960	-208.65094	10.11501	-283.91074	168.90833	1.60252	-276.93185	-233.45348	27.51296	329.47501	140.80202	40.02051	348.61545	20.44283	1124.48108	-547.00909	-91.26105	498.21301	-454.18329	66.42755	497.35010	-447.77139	-124.59801	583.16400	485.35037	26.96383	572.99969	492.58548	
898	8.970	-209.56215	4.62472	-283.29599	169.10703	1.59456	-276.88763	-233.28394	27.49443	329.47311	140.45735	34.05762	349.06207	20.33552	1124.20850	-547.35419	-91.05313	498.09720	-454.31079	66.74599	497.21011	-447.75348	-124.69250	583.10498	485.28806	26.74025	572.91980	492.48917	
899	8.980	-210.05064	4.37005	-285.73090	169.17807	1.53675	-276.92130	-233.40541	27.80566	329.25253	140.39406	29.24807	348.72083	20.60890	1124.00720	-547.82941	-91.17396	498.43866	-454.86823	67.11835	497.18716	-447.60229	-124.89332	583.08966	485.26675	26.53070	572.89606	492.51303	
900	8.990	-210.30556	4.00816	-286.10266	169.24387	1.55299	-276.93878	-232.95627	27.62729	329.46100	141.86244	28.70020	347.97119	20.72587	1123.95886	-548.65820	-90.86526	498.77368	-454.75748	67.37025	497.50827	-447.39883	-125.47020	583.47321	485.32001	26.20672	573.16266	492.70676	
901	9.000	-209.88525	2.40052	-285.02408	169.48543	1.80355	-276.83691	-232.14378	27.24432	329.69852	141.89366	28.29868	347.48019	20.95907	1124.26746	-549.60120	-90.35059	499.15018	-454.39709	67.80762	498.33112	-446.95151	-125.74294	584.35797	485.42496	25.50130	574.25336	492.96024	
902	9.010	-209.39508	3.20190	-284.86639	169.59755	2.44287	-276.88354	-231.44205	28.04674	329.18759	142.17062	28.53997	347.90506	21.37428	1124.87537	-550.42175	-89.66293	499.32074	-453.76584	68.10634	498.73361	-446.43454	-126.58422	585.67554	485.66895	25.15949	576.19476	493.26678	
903	9.020	-209.57727	3.35112	-285.62665	169.30885	5.63677	-275.76901	-229.62572	30.60829	330.20981	142.33017	28.17006	348.11490	21.28377	1125.79333	-551.56445	-89.18266	499.68417	-453.57202	69.22176	499.12759	-446.15353	-127.09334	587.08679	485.81961	24.55984	577.51257	493.54517	
904	9.030	-209.82314	2.50444	-285.46747	166.49541	8.73674	-271.67059	-227.07214	33.55572	333.20911	142.11307	28.15208	347.74405	21.28888	1126.49011	-553.16608	-88.68083	500.43478	-453.39288	69.65121	499.88150	-445.91040	-127.77451	587.80585	485.86990	24.35733	578.27203	493.76816	
905	9.040	-209.59569	2.17683	-285.09192	163.01520	15.63760	-269.32559	-223.11462	41.78889	334.36218	142.34953	28.25938	348.07135	21.42018	1126.78113	-554.43219	-88.38174	500.96237	-453.36789	69.35290	500.82623	-445.55231	-128.26479	587.79504	486.03845	23.18834	578.58051	493.94736	
906	9.050	-209.48628	2.61876	-285.66629	162.45645	25.05315	-267.92291	-221.34854	49.78757	335.39789	142.46851	28.07670	347.86862	21.30580	1126.93274	-555.57617	-88.28852	501.19751	-453.22873	69.57770	501.13916	-445.34988	-128.56541	587.66962	486.21002	23.00923	578.83411	494.25665	
907	9.060	-209.42519	2.50699	-285.71259	163.07671	36.57185	-267.74142	-220.17485	60.91144	334.42154	142.56973	28.10861	348.04395	21.14379	1126.84521	-556.51471	-88.21062	501.12778	-452.97806	69.78308	501.01584	-444.97168	-128.70670	587.63770	486.47156	23.07812	578.84772	494.55267	
908	9.070	-208.78674	1.54296	-285.18457	165.03426	48.35059	-268.28290	-222.18135	72.57175	333.76572	142.92618	28.09905	348.11700	20.80805	1126.75940	-557.11127	-88.36465	501.10367	-452.91556	69.87521	500.83981	-444.56808	-128.62979	586.69116	486.09247	23.01220	578.45520	494.91672	
909	9.080	-208.50435	1.31803	-285.06274	166.82445	60.40088	-268.22571	-224.89490	84.58761	332.72623	143.62102	28.28429	348.43954	20.44998	1126.58923	-557.71802	-88.14085	500.68527	-452.17746	69.68907	500.80078	-444.20804	-127.90630	585.81555	486.80255	23.17776	577.71045	495.40506	
910	9.090	-208.40208	1.31654	-285.05423	168.28078	72.39193	-268.50784	-227.02167	96.42470	332.12137	144.07932	27.98707	348.26236	20.06836	1126.58813	-558.08362	-88.06355	500.57535	-451.52878	69.58902	500.92700	-443.76404	-127.63492	585.04871	487.13583	23.75355	576.93280	495.88882	
911	9.100	-208.36688	1.35312	-285.01111	170.05910	84.21201	-268.17291	-228.49847	107.25662	332.55719	144.22247	27.67928	348.27011	19.39605	1126.78369	-558.54199	-88.28755	500.63480	-451.26193	69.44926	501.06390	-443.59152	-127.22034	584.02649	487.87979	24.44194	576.08069	496.36026	
912	9.110	-208.48193	1.58410	-285.09634	169.79512	94.82165	-268.23154	-228.86041	117.99557	333.05856	144.35896	27.54049	348.28052	19.01689	1127.00720	-558.83099	-88.49891	500.82846	-450.84613	70.07025	500.92484	-443.46146	-126.56524	583.33923	488.52332	24.91796	575.48590	496.78027	
913	9.120	-208.32016	1.67059	-285.06790	170.08421	105.31872	-267.88144	-228.50227	127.62904	333.58807	144.46220	27.51522	348.20682	18.80041	1127.21729	-559.15906	-88.95253	500.87170	-450.36530	70.05048	500.90494	-442.77463	-126.21589	582.97174	489.03702	25.65560	574.96869	497.30472	
